<svg id="Layer_1" data-name="Layer 1" xmlns="http://www.w3.org/2000/svg" xmlns:xlink="http://www.w3.org/1999/xlink" viewBox="0 0 384 384"><defs><style>.cls-1{fill:none;clip-rule:evenodd;}.cls-2{clip-path:url(#clip-path);}.cls-3{fill:#999;}.cls-10,.cls-3,.cls-4,.cls-5,.cls-6,.cls-7,.cls-8,.cls-9{fill-rule:evenodd;}.cls-4{fill:#b2b2b2;}.cls-5{fill:#ccc;}.cls-6{fill:#434a54;}.cls-7{fill:#656d78;}.cls-8{fill:#e5e5e5;}.cls-9{fill:#ed5565;}.cls-10{fill:#da4453;}</style><clipPath id="clip-path"><polyline class="cls-1" points="0 384 0 0 384 0 384 384 0 384"/></clipPath></defs><title>logo</title><g class="cls-2"><polygon class="cls-3" points="66.36 264.54 192 337.08 317.64 264.54 317.64 119.46 192 46.92 66.36 119.46 66.36 264.54"/><polygon class="cls-4" points="317.64 264.54 317.64 264.54 192 192 192 46.92 317.64 119.46 317.64 264.54"/><polygon class="cls-5" points="192 337.08 192 337.07 192 192 317.64 119.46 317.64 264.54 192 337.08"/><path class="cls-6" d="M192,192l54.2-31.29L192,129.42l-54.2,31.29h0Zm-54.2,93.87-54.2-31.29V129.42L192,66.84l108.39,62.58h0V254.58l-54.2,31.29V223.29L192,254.58l-54.2-31.29Z"/><polygon class="cls-7" points="300.39 192 300.39 129.42 192 66.84 192 129.42 300.39 192"/><polygon class="cls-8" points="192 337.08 192 337.08 192 192 66.36 119.46 66.36 264.54 192 337.08"/><polygon class="cls-9" points="137.8 285.87 83.61 254.58 83.61 129.42 137.8 160.71 192 192 300.39 129.42 300.39 254.58 246.19 285.87 246.19 223.29 192 254.58 137.8 223.29 137.8 285.87"/><polygon class="cls-10" points="246.2 285.87 246.2 223.29 192 254.58 192 192 300.39 129.42 300.39 254.58 246.2 285.87"/></g></svg>